# xmcd
#
# Track frame offsets:
#	150
#	13865
#	29367
#	48148
#	65387
#	80215
#	97672
#	113489
#	129394
#	145997
#	163871
#	182670
#	201048
#	217374
#	237135
#	254159
#	267923
#
# Disc length: 3759 seconds
#
# Revision: 1
# Processed by: cddbd v1.5.2PL0 Copyright (c) Steve Scherf et al.
# Submitted via: audiograbber 1.83.01
#
DISCID=f40ead11
DTITLE=Rascal Flatts - Rewind
DYEAR=2014
DGENRE=Country
TTITLE0=Payback
TTITLE1=Rewind
TTITLE2=I Have Never Been To Memphis
TTITLE3=DJ Tonight
TTITLE4=Powerful Stuff
TTITLE5=Riot
TTITLE6=Night Of Our Lives
TTITLE7=I Like The Sound Of That
TTITLE8=Aftermath
TTITLE9=I'm On Fire
TTITLE10=Life's A Song
TTITLE11=Honeysuckle Lazy
TTITLE12=The Mechanic
TTITLE13=Compass
TTITLE14=Wildfire
TTITLE15=She Must Like Broken Hearts
TTITLE16=Bring The Family
EXTD=
EXTT0=
EXTT1=
EXTT2=
EXTT3=
EXTT4=
EXTT5=
EXTT6=
EXTT7=
EXTT8=
EXTT9=
EXTT10=
EXTT11=
EXTT12=
EXTT13=
EXTT14=
EXTT15=
EXTT16=
PLAYORDER=
